<svg width="24" height="24" viewBox="0 0 24 24" fill="none" xmlns="http://www.w3.org/2000/svg">
  <path d="M18 8.5C18 6.9 17.37 5.37 16.24 4.24C15.11 3.11 13.58 2.5 12 2.5C10.42 2.5 8.89 3.11 7.76 4.24C6.63 5.37 6 6.9 6 8.5C6 15.5 3.5 17.5 3.5 17.5H20.5C20.5 17.5 18 15.5 18 8.5Z" stroke="currentColor" stroke-width="1.8" stroke-linecap="round" stroke-linejoin="round"></path>
  <path d="M14 20.5C13.8 20.85 13.5 21.14 13.14 21.32C12.78 21.5 12.39 21.6 12 21.6C11.61 21.6 11.22 21.5 10.86 21.32C10.5 21.14 10.2 20.85 10 20.5" stroke="currentColor" stroke-width="1.8" stroke-linecap="round" stroke-linejoin="round"></path>
</svg>